# xmcd CD database file
#
# Track frame offsets:
#	150
#	26875
#	50883
#	69588
#	80608
#	98398
#	123670
#	133338
#	153890
#	166300
#	180430
#	237985
#	258665
#	287998
#	316848
#	331545
#
# Disc length: 4653 seconds
#
# Revision: 2
# Processed by: cddbd v1.5.2PL0 Copyright (c) Steve Scherf et al.
# Submitted via: CDex 1.51
#
DISCID=e1122b10
DTITLE=Mira Kubasinska - Mira i Ogien
DYEAR=1997
DGENRE=Blues
TTITLE0=Do Kogo Idziesz
TTITLE1=W Co Mam Wierzyc
TTITLE2=Tysiac Raz Kocham
TTITLE3=Zapytam Ptakow
TTITLE4=Kwiaty Nam Powiedly
TTITLE5=A Miales Przyjsc 
TTITLE6=Byles We Snie Tylko
TTITLE7=Luiza
TTITLE8=Mialam Caly Swiat
TTITLE9=Nie Zapalaj Swiatla
TTITLE10=Wielki Ogien
TTITLE11=Liscie Zabral Wiatr
TTITLE12=Na Dnie Moich Oczu
TTITLE13=Masz To Dzis
TTITLE14=Czarno Czarny Film
TTITLE15=Dales Mi Pierscien
EXTD=YEAR: 1997
EXTT0=
EXTT1=
EXTT2=
EXTT3=
EXTT4=
EXTT5=
EXTT6=
EXTT7=
EXTT8=
EXTT9=
EXTT10=
EXTT11=
EXTT12=
EXTT13=
EXTT14=
EXTT15=
PLAYORDER=
